<?xml version="1.0" encoding="UTF-8" standalone="no"?>
<!-- Generator: Adobe Illustrator 25.2.1, SVG Export Plug-In . SVG Version: 6.00 Build 0)  -->

<svg
   version="1.1"
   id="Layer_1"
   x="0px"
   y="0px"
   viewBox="0 0 300 75.1"
   style="enable-background:new 0 0 300 75.1;"
   xml:space="preserve"
   sodipodi:docname="oe_logo_name.svg"
   inkscape:version="1.2 (dc2aedaf03, 2022-05-15)"
   xmlns:inkscape="http://www.inkscape.org/namespaces/inkscape"
   xmlns:sodipodi="http://sodipodi.sourceforge.net/DTD/sodipodi-0.dtd"
   xmlns="http://www.w3.org/2000/svg"
   xmlns:svg="http://www.w3.org/2000/svg"
   xmlns:ns="&amp;ns_sfw;"><defs
   id="defs66" /><sodipodi:namedview
   id="namedview64"
   pagecolor="#ffffff"
   bordercolor="#000000"
   borderopacity="0.25"
   inkscape:showpageshadow="2"
   inkscape:pageopacity="0.0"
   inkscape:pagecheckerboard="0"
   inkscape:deskcolor="#d1d1d1"
   showgrid="false"
   inkscape:zoom="1.7995868"
   inkscape:cx="307.29277"
   inkscape:cy="-54.456947"
   inkscape:window-width="1920"
   inkscape:window-height="1046"
   inkscape:window-x="-11"
   inkscape:window-y="-11"
   inkscape:window-maximized="1"
   inkscape:current-layer="text503" />
<style
   type="text/css"
   id="style2">
	.st0{fill:#FFFFFF;}
	.st1{fill:none;stroke:#2FB6DF;stroke-width:3.59;stroke-linecap:round;stroke-miterlimit:10;}
	.st2{fill:none;stroke:#D6AACD;stroke-width:3.59;stroke-linecap:round;stroke-miterlimit:10;}
	.st3{fill:none;stroke:#B5B5B6;stroke-width:3.59;stroke-linecap:round;stroke-miterlimit:10;}
	.st4{fill:none;stroke:#EA6A3F;stroke-width:3.59;stroke-linecap:round;stroke-miterlimit:10;}
	.st5{fill:none;stroke:#FBD026;stroke-width:3.59;stroke-linecap:round;stroke-miterlimit:10;}
	.st6{fill:#2FB6DF;}
	.st7{fill:none;stroke:#D15527;stroke-width:3.59;stroke-linecap:round;stroke-miterlimit:10;}
	.st8{fill:none;}
</style>
<metadata
   id="metadata4">
	<ns:sfw>
		<ns:slices />
		<ns:sliceSourceBounds
   bottomLeftOrigin="true"
   height="75"
   width="232.4"
   x="0"
   y="0.1" />
	</ns:sfw>
</metadata>
<g
   id="g35">
	<g
   id="Layer_1_1_">
		<circle
   class="st0"
   cx="37.5"
   cy="37.5"
   r="33.8"
   id="circle6" />
		<line
   class="st1"
   x1="48.3"
   y1="9.5"
   x2="56.6"
   y2="59.2"
   id="line8" />
		<line
   class="st1"
   x1="27.7"
   y1="20.5"
   x2="56.6"
   y2="59.2"
   id="line10" />
		<line
   class="st2"
   x1="8.6"
   y1="40"
   x2="27.7"
   y2="20.5"
   id="line12" />
		<line
   class="st3"
   x1="8.6"
   y1="40"
   x2="56.6"
   y2="59.2"
   id="line14" />
		<line
   class="st1"
   x1="56.6"
   y1="59.2"
   x2="61.9"
   y2="44.4"
   id="line16" />
		<line
   class="st4"
   x1="27.7"
   y1="20.5"
   x2="61.9"
   y2="44.4"
   id="line18" />
		<line
   class="st3"
   x1="8.6"
   y1="40"
   x2="61.9"
   y2="44.4"
   id="line20" />
		<line
   class="st5"
   x1="48.3"
   y1="9.5"
   x2="61.9"
   y2="44.4"
   id="line22" />
		<path
   class="st6"
   d="M40.5,28.5"
   id="path24" />
		<path
   class="st7"
   d="M41.9,29.7"
   id="path26" />
		<path
   class="st6"
   d="M28.1,30.2"
   id="path28" />
		<path
   class="st6"
   d="M28.1,30.2"
   id="path30" />
		<circle
   class="st8"
   cx="37.5"
   cy="37.5"
   r="37.5"
   id="circle32" />
	</g>
</g>
<g
   id="g61">
	
	
	
	
	
	
	
	
	
	
	
	
<g
   aria-label="Coax Commutator"
   id="text503"
   style="font-weight:bold;font-size:37.3333px;font-family:Miso;-inkscape-font-specification:'Miso Bold';stroke:#000000;stroke-width:1.13386;stroke-linejoin:round"><path
     d="m 84.274843,51.732064 c 2.463998,0.672 5.114662,-0.410666 6.383995,-2.650664 0.298666,-0.559999 0.112,-1.306666 -0.448,-1.642665 -0.559999,-0.298667 -1.306666,-0.112 -1.642665,0.447999 -0.746666,1.306666 -2.239998,1.941332 -3.695997,1.530666 -1.455999,-0.410667 -2.426665,-1.679999 -2.426665,-3.173331 V 33.550747 c 0,-1.493332 0.970666,-2.762665 2.426665,-3.173331 1.455999,-0.410666 2.949331,0.224 3.695997,1.530665 0.335999,0.56 1.082666,0.784 1.642665,0.448 0.56,-0.336 0.746666,-1.082666 0.448,-1.642665 -1.306666,-2.202665 -3.882664,-3.359997 -6.383995,-2.650665 -2.538664,0.709333 -4.218663,2.911998 -4.218663,5.487996 v 12.693322 c 0,2.575998 1.679999,4.778663 4.218663,5.487995 z"
     style="font-weight:normal;-inkscape-font-specification:Miso"
     id="path5842" /><path
     d="m 99.357505,51.844064 c 2.650665,0 4.853325,-2.165331 4.853325,-4.853329 v -7.46666 c 0,-2.687998 -2.20266,-4.853329 -4.853325,-4.853329 -2.687998,0 -4.853329,2.165331 -4.853329,4.853329 v 7.46666 c 0,2.687998 2.165331,4.853329 4.853329,4.853329 z m 0,-14.93332 c 1.455995,0 2.613335,1.157332 2.613335,2.613331 v 7.46666 c 0,1.455999 -1.15734,2.613331 -2.613335,2.613331 -1.455999,0 -2.613331,-1.157332 -2.613331,-2.613331 v -7.46666 c 0,-1.455999 1.157332,-2.613331 2.613331,-2.613331 z"
     style="font-weight:normal;-inkscape-font-specification:Miso"
     id="path5844" /><path
     d="m 114.9628,41.988073 h -2.61333 c -2.688,0 -4.85333,2.165331 -4.85333,4.853329 0,2.687998 2.16533,4.853329 4.85333,4.853329 h 3.73333 c 0.59734,0 1.12,-0.485333 1.12,-1.119999 V 39.449408 c 0,-1.941331 -1.15733,-3.658663 -2.94933,-4.405329 -1.792,-0.746666 -3.84533,-0.336 -5.22666,1.045332 -0.224,0.186667 -0.336,0.448 -0.336,0.783999 0,0.298667 0.112,0.56 0.336,0.784 0.224,0.224 0.48533,0.335999 0.784,0.335999 0.336,0 0.59733,-0.111999 0.82133,-0.335999 0.70933,-0.746666 1.75467,-0.970666 2.76267,-0.56 0.93333,0.410667 1.56799,1.306666 1.56799,2.351998 z m -5.22666,4.853329 c 0,-1.455999 1.15733,-2.613331 2.61333,-2.613331 h 2.61333 v 5.226662 h -2.61333 c -1.456,0 -2.61333,-1.157332 -2.61333,-2.613331 z"
     style="font-weight:normal;-inkscape-font-specification:Miso"
     id="path5846" /><path
     d="m 121.53344,51.694731 c 0.56,0.298667 1.232,0.149333 1.53066,-0.410666 l 3.17334,-5.823995 3.21066,5.823995 c 0.29867,0.559999 0.97066,0.709333 1.53066,0.410666 0.56,-0.298666 0.74667,-0.933332 0.448,-1.493332 l -3.88266,-7.093327 3.73333,-6.757328 c 0.29867,-0.559999 0.112,-1.231999 -0.448,-1.530665 -0.56,-0.298667 -1.232,-0.112 -1.53066,0.447999 l -3.06133,5.525329 -3.024,-5.525329 c -0.29867,-0.559999 -0.97067,-0.746666 -1.53067,-0.447999 -0.56,0.298666 -0.74666,0.970666 -0.448,1.530665 l 3.73333,6.757328 -3.88266,7.093327 c -0.29867,0.56 -0.112,1.194666 0.448,1.493332 z"
     style="font-weight:normal;-inkscape-font-specification:Miso"
     id="path5848" /><path
     d="m 146.43475,51.732064 c 2.464,0.672 5.11466,-0.410666 6.384,-2.650664 0.29866,-0.559999 0.112,-1.306666 -0.448,-1.642665 -0.56,-0.298667 -1.30667,-0.112 -1.64267,0.447999 -0.74666,1.306666 -2.24,1.941332 -3.696,1.530666 -1.45599,-0.410667 -2.42666,-1.679999 -2.42666,-3.173331 V 33.550747 c 0,-1.493332 0.97067,-2.762665 2.42666,-3.173331 1.456,-0.410666 2.94934,0.224 3.696,1.530665 0.336,0.56 1.08267,0.784 1.64267,0.448 0.56,-0.336 0.74666,-1.082666 0.448,-1.642665 -1.30667,-2.202665 -3.88267,-3.359997 -6.384,-2.650665 -2.53866,0.709333 -4.21866,2.911998 -4.21866,5.487996 v 12.693322 c 0,2.575998 1.68,4.778663 4.21866,5.487995 z"
     style="font-weight:normal;-inkscape-font-specification:Miso"
     id="path5850" /><path
     d="m 161.51742,51.844064 c 2.65066,0 4.85333,-2.165331 4.85333,-4.853329 v -7.46666 c 0,-2.687998 -2.20267,-4.853329 -4.85333,-4.853329 -2.688,0 -4.85333,2.165331 -4.85333,4.853329 v 7.46666 c 0,2.687998 2.16533,4.853329 4.85333,4.853329 z m 0,-14.93332 c 1.456,0 2.61333,1.157332 2.61333,2.613331 v 7.46666 c 0,1.455999 -1.15733,2.613331 -2.61333,2.613331 -1.456,0 -2.61333,-1.157332 -2.61333,-2.613331 v -7.46666 c 0,-1.455999 1.15733,-2.613331 2.61333,-2.613331 z"
     style="font-weight:normal;-inkscape-font-specification:Miso"
     id="path5852" /><path
     d="m 173.38939,37.060077 h 5.22666 v 13.663988 c 0,0.634666 0.48533,1.119999 1.12,1.119999 0.59733,0 1.12,-0.485333 1.12,-1.119999 V 37.060077 h 2.61333 c 1.456,0 2.61333,1.157332 2.61333,2.613331 v 11.050657 c 0,0.634666 0.48533,1.119999 1.12,1.119999 0.59733,0 1.12,-0.485333 1.12,-1.119999 V 39.673408 c 0,-2.687998 -2.20267,-4.853329 -4.85333,-4.853329 h -11.19999 c -0.63467,0 -1.12,0.485333 -1.12,1.119999 v 14.783987 c 0,0.634666 0.48533,1.119999 1.12,1.119999 0.59733,0 1.12,-0.485333 1.12,-1.119999 z"
     style="font-weight:normal;-inkscape-font-specification:Miso"
     id="path5854" /><path
     d="m 195.49067,37.060077 h 5.22666 v 13.663988 c 0,0.634666 0.48533,1.119999 1.12,1.119999 0.59733,0 1.12,-0.485333 1.12,-1.119999 V 37.060077 h 2.61333 c 1.456,0 2.61333,1.157332 2.61333,2.613331 v 11.050657 c 0,0.634666 0.48533,1.119999 1.12,1.119999 0.59733,0 1.12,-0.485333 1.12,-1.119999 V 39.673408 c 0,-2.687998 -2.20267,-4.853329 -4.85333,-4.853329 h -11.19999 c -0.63467,0 -1.12,0.485333 -1.12,1.119999 v 14.783987 c 0,0.634666 0.48533,1.119999 1.12,1.119999 0.59733,0 1.12,-0.485333 1.12,-1.119999 z"
     style="font-weight:normal;-inkscape-font-specification:Miso"
     id="path5856" /><path
     d="m 219.90661,51.694731 h 3.73333 c 0.63467,0 1.12,-0.485333 1.12,-1.119999 V 35.790745 c 0,-0.634666 -0.48533,-1.119999 -1.12,-1.119999 -0.63467,0 -1.12,0.485333 -1.12,1.119999 v 13.663988 h -2.61333 c -1.456,0 -2.61333,-1.157332 -2.61333,-2.613331 V 35.790745 c 0,-0.634666 -0.48533,-1.119999 -1.12,-1.119999 -0.63467,0 -1.12,0.485333 -1.12,1.119999 v 11.050657 c 0,2.687998 2.16533,4.853329 4.85333,4.853329 z"
     style="font-weight:normal;-inkscape-font-specification:Miso"
     id="path5858" /><path
     d="m 229.46394,37.060077 h 1.86667 v 9.930658 c 0,2.687998 2.16533,4.853329 4.85332,4.853329 0.63467,0 1.12,-0.485333 1.12,-1.119999 0,-0.634666 -0.48533,-1.119999 -1.12,-1.119999 -1.45599,0 -2.61333,-1.157332 -2.61333,-2.613331 v -9.930658 h 2.61333 c 0.63467,0 1.12,-0.485333 1.12,-1.119999 0,-0.634666 -0.48533,-1.119999 -1.12,-1.119999 h -2.61333 v -6.495995 c 0,-0.634666 -0.48533,-1.119999 -1.12,-1.119999 -0.63466,0 -1.11999,0.485333 -1.11999,1.119999 v 6.495995 h -1.86667 c -0.63467,0 -1.12,0.485333 -1.12,1.119999 0,0.634666 0.48533,1.119999 1.12,1.119999 z"
     style="font-weight:normal;-inkscape-font-specification:Miso"
     id="path5860" /><path
     d="m 247.01058,41.988073 h -2.61333 c -2.688,0 -4.85333,2.165331 -4.85333,4.853329 0,2.687998 2.16533,4.853329 4.85333,4.853329 h 3.73333 c 0.59733,0 1.12,-0.485333 1.12,-1.119999 V 39.449408 c 0,-1.941331 -1.15734,-3.658663 -2.94933,-4.405329 -1.792,-0.746666 -3.84533,-0.336 -5.22667,1.045332 -0.224,0.186667 -0.336,0.448 -0.336,0.783999 0,0.298667 0.112,0.56 0.336,0.784 0.224,0.224 0.48534,0.335999 0.784,0.335999 0.336,0 0.59734,-0.111999 0.82134,-0.335999 0.70933,-0.746666 1.75466,-0.970666 2.76266,-0.56 0.93333,0.410667 1.568,1.306666 1.568,2.351998 z m -5.22666,4.853329 c 0,-1.455999 1.15733,-2.613331 2.61333,-2.613331 h 2.61333 v 5.226662 h -2.61333 c -1.456,0 -2.61333,-1.157332 -2.61333,-2.613331 z"
     style="font-weight:normal;-inkscape-font-specification:Miso"
     id="path5862" /><path
     d="m 253.65587,37.060077 h 1.86666 v 9.930658 c 0,2.687998 2.16533,4.853329 4.85333,4.853329 0.63467,0 1.12,-0.485333 1.12,-1.119999 0,-0.634666 -0.48533,-1.119999 -1.12,-1.119999 -1.456,0 -2.61333,-1.157332 -2.61333,-2.613331 v -9.930658 h 2.61333 c 0.63467,0 1.12,-0.485333 1.12,-1.119999 0,-0.634666 -0.48533,-1.119999 -1.12,-1.119999 h -2.61333 v -6.495995 c 0,-0.634666 -0.48533,-1.119999 -1.12,-1.119999 -0.63467,0 -1.12,0.485333 -1.12,1.119999 v 6.495995 h -1.86666 c -0.63467,0 -1.12,0.485333 -1.12,1.119999 0,0.634666 0.48533,1.119999 1.12,1.119999 z"
     style="font-weight:normal;-inkscape-font-specification:Miso"
     id="path5864" /><path
     d="m 269.63451,51.844064 c 2.65066,0 4.85332,-2.165331 4.85332,-4.853329 v -7.46666 c 0,-2.687998 -2.20266,-4.853329 -4.85332,-4.853329 -2.688,0 -4.85333,2.165331 -4.85333,4.853329 v 7.46666 c 0,2.687998 2.16533,4.853329 4.85333,4.853329 z m 0,-14.93332 c 1.45599,0 2.61333,1.157332 2.61333,2.613331 v 7.46666 c 0,1.455999 -1.15734,2.613331 -2.61333,2.613331 -1.456,0 -2.61334,-1.157332 -2.61334,-2.613331 v -7.46666 c 0,-1.455999 1.15734,-2.613331 2.61334,-2.613331 z"
     style="font-weight:normal;-inkscape-font-specification:Miso"
     id="path5866" /><path
     d="m 280.38648,51.844064 c 0.63467,0 1.12,-0.485333 1.12,-1.119999 V 37.060077 h 2.61333 c 0.448,0 0.896,0.112 1.30667,0.336 0.56,0.335999 1.232,0.149333 1.53066,-0.410667 0.29867,-0.559999 0.14934,-1.194665 -0.41066,-1.530665 -0.784,-0.410666 -1.568,-0.634666 -2.42667,-0.634666 h -3.73333 c -0.63466,0 -1.12,0.485333 -1.12,1.119999 v 14.783987 c 0,0.634666 0.48534,1.119999 1.12,1.119999 z"
     style="font-weight:normal;-inkscape-font-specification:Miso"
     id="path5868" /></g></g>
</svg>
